<?xml version="1.0" encoding="UTF-8" standalone="no"?>
<!-- Created with Inkscape (http://www.inkscape.org/) -->

<svg
        version="1.1"
        id="svg1_mittig"
        width="313.70667"
        height="226.77333"
        viewBox="0 0 313.70667 226.77333"
        xmlns="http://www.w3.org/2000/svg"
>
  <defs
     id="defs1_mittig">
    <linearGradient
       x1="0"
       y1="0"
       x2="1"
       y2="0"
       gradientUnits="userSpaceOnUse"
       gradientTransform="matrix(2313.32,0,0,-2313.32,19.7178,16.0399)"
       spreadMethod="pad"
       id="linearGradient4_mittig">
      <stop
         style="stop-opacity:1;stop-color:#2e9b84"
         offset="0"
         id="stop1_mittig" />
      <stop
         style="stop-opacity:1;stop-color:#2e9b84"
         offset="0.00045455"
         id="stop2_mittig" />
      <stop
         style="stop-opacity:1;stop-color:#63c54d"
         offset="0.458682"
         id="stop3_mittig" />
      <stop
         style="stop-opacity:1;stop-color:#91d233"
         offset="1"
         id="stop4_mittig" />
    </linearGradient>
    <clipPath
       clipPathUnits="userSpaceOnUse"
       id="clipPath4_mittig">
      <path
         d="m 19.7188,165.578 v 381.75 H 251.93 V 506.602 H 67.1328 V 379.559 H 239.164 V 338.828 H 67.1328 v -173.25 z m 238.2892,0 h 49.847 l 33.438,97.871 h 151.969 l 32.218,-97.871 h 49.848 l -128.265,381.75 h -57.75 z m 95.437,134.953 63.832,189.047 63.828,-189.047 z M 652.836,165.578 v 381.75 H 700.25 V 165.578 Z M 989.34,324.191 1098.42,165.578 h -61.4 L 938.352,321.809 H 870.457 V 165.578 h -47.414 v 381.75 h 133.129 c 43.562,0 76.538,-10.379 98.928,-31.148 22.39,-20.77 33.59,-48.071 33.59,-81.91 0,-33.442 -11.2,-60.54 -33.59,-81.309 -16.29,-15.109 -38.26,-24.652 -65.76,-28.77 z m 29.29,162.047 c -14.28,13.582 -35.107,20.371 -62.458,20.371 H 870.457 V 355.238 h 82.066 c 28.571,0 50.307,7.043 65.197,21.121 14.89,14.09 22.34,32.371 22.34,54.871 0,23.098 -7.14,41.43 -21.43,55.008 z m 398.02,-320.66 v 187.231 c 0,26.14 -4.87,47.363 -14.59,63.671 -9.73,16.321 -23.2,28.219 -40.43,35.719 -17.22,7.5 -36.98,11.242 -59.27,11.242 -23.3,0 -44.02,-2.882 -62.15,-8.66 -18.14,-5.769 -32.37,-15.09 -42.71,-27.961 -10.33,-12.871 -15.5,-29.84 -15.5,-50.91 h 52.89 c 0,11.949 2.99,21.731 8.96,29.328 5.98,7.602 14.09,13.223 24.32,16.871 10.23,3.653 21.63,5.469 34.19,5.469 22.29,0 39.01,-5.726 50.15,-17.168 11.15,-11.449 16.72,-30.25 16.72,-56.39 v -38.758 c -13.25,4.566 -26.75,8.359 -40.58,11.109 -15.29,3.039 -30.54,4.551 -45.74,4.551 -21.28,0 -40.42,-2.883 -57.45,-8.66 -17.02,-5.774 -30.44,-14.844 -40.27,-27.203 -9.83,-12.36 -14.74,-28.368 -14.74,-48.02 0,-15 3.85,-29.277 11.55,-42.859 7.7,-13.578 19.35,-24.621 34.96,-33.129 15.6,-8.512 35.35,-12.77 59.26,-12.77 21.69,0 40.33,5.071 55.93,15.199 15.6,10.129 27.61,23.508 36.02,40.122 0.8,1.589 1.38,3.25 2.1,4.859 l 5.04,-52.883 z m -47.42,120.102 v -17.981 c 0,-11.14 -3.7,-22.289 -11.09,-33.429 -7.4,-11.141 -17.43,-20.411 -30.09,-27.809 -12.67,-7.402 -26.9,-11.09 -42.71,-11.09 -22.49,0 -38.85,5.059 -49.09,15.188 -10.23,10.132 -15.34,22.293 -15.34,36.48 0,19.25 6.68,32.871 20.06,40.883 13.37,8 29.78,11.996 49.23,11.996 12.77,0 26.8,-1.418 42.1,-4.246 13.57,-2.524 25.83,-5.883 36.93,-9.992 z m 659.56,123.66 c -5.67,1.828 -11.85,3.398 -18.54,4.711 -6.69,1.32 -12.66,1.98 -17.93,1.98 -17.23,0 -31.11,-4.91 -41.64,-14.742 -10.54,-9.828 -18.19,-23.66 -22.95,-41.488 -4.76,-17.832 -7.14,-38.801 -7.14,-62.922 V 165.578 h -47.42 v 291.184 h 47.42 v -56.051 c 6.81,18.508 15.85,32.828 27.2,42.828 13.68,12.051 30.34,18.082 50,18.082 6.48,0 12.41,-0.461 17.78,-1.371 5.37,-0.91 10.79,-2.281 16.26,-4.102 z m 169.3,-251.059 c -26.14,0 -49.39,5.778 -69.76,17.328 -20.36,11.551 -36.42,28.672 -48.17,51.371 -11.76,22.692 -17.63,50.649 -17.63,83.879 0,33.442 5.87,61.45 17.63,84.039 11.75,22.602 27.81,39.672 48.17,51.223 20.37,11.551 43.62,17.32 69.76,17.32 25.94,0 49.09,-5.769 69.45,-17.32 20.36,-11.551 36.37,-28.621 48.02,-51.223 11.65,-22.589 17.48,-50.597 17.48,-84.039 0,-33.23 -5.83,-61.187 -17.48,-83.879 -11.65,-22.699 -27.66,-39.82 -48.02,-51.371 -20.36,-11.55 -43.51,-17.328 -69.45,-17.328 z m -1.22,41.34 c 18.85,0 34.85,4.508 48.02,13.527 13.18,9.012 23.15,21.832 29.94,38.454 6.79,16.609 10.19,36.367 10.19,59.257 0,34.653 -7.2,61.961 -21.58,81.922 -14.39,19.957 -35.77,29.938 -64.14,29.938 -19.04,0 -35.1,-4.508 -48.17,-13.528 -13.07,-9.019 -23,-21.882 -29.79,-38.601 -6.79,-16.719 -10.18,-36.629 -10.18,-59.731 0,-34.238 7.24,-61.339 21.73,-81.3 14.49,-19.957 35.81,-29.938 63.98,-29.938 z M 1751.29,453.57 c -9.01,-7.23 -13.65,-18.308 -14.32,-32.91 1.99,-2.5 4.02,-4.961 5.81,-7.672 10.54,-16.008 15.8,-34.648 15.8,-55.929 0,-21.071 -5.26,-39.61 -15.8,-55.618 -10.54,-16.011 -24.67,-28.472 -42.4,-37.382 -17.73,-8.918 -37.44,-13.379 -59.12,-13.379 -22.29,0 -42.4,4.461 -60.33,13.379 -0.56,0.269 -1.04,0.632 -1.6,0.921 -3.3,-0.679 -6.62,-1.73 -9.95,-3.199 -6.18,-2.742 -11.35,-6.793 -15.5,-12.16 -4.16,-5.371 -6.23,-12.109 -6.23,-20.211 0,-9.32 3.85,-17.121 11.55,-23.41 7.7,-6.281 21.68,-9.422 41.94,-9.422 h 113.07 c 27.35,0 48.88,-5.769 64.59,-17.316 15.7,-11.551 23.55,-27.66 23.55,-48.332 0,-19.051 -6.79,-37.3402 -20.36,-54.8597 -13.58,-17.5312 -33.03,-31.9219 -58.36,-43.1601 -25.33,-11.25 -55.62,-16.8711 -90.88,-16.8711 -29.79,0 -55.62,4.1992 -77.51,12.6093 -21.88,8.4102 -38.85,19.6602 -50.91,33.7422 -12.05,14.0782 -18.08,29.6289 -18.08,46.6604 0,22.488 8.26,39.66 24.77,51.508 9.02,6.48 19.54,11.121 31.43,14.062 0.16,-0.082 0.33,-0.152 0.49,-0.23 l -0.11,0.3 c -0.12,-0.031 -0.26,-0.043 -0.38,-0.07 -10.51,5.41 -18.98,11.981 -25.2,19.828 -7.7,9.731 -11.55,20.371 -11.55,31.922 0,12.149 3.44,22.488 10.34,31 6.89,8.508 15.85,15 26.89,19.449 4.24,1.711 8.65,2.989 13.14,4.051 -6.75,6.051 -12.68,12.879 -17.69,20.57 -10.44,16.008 -15.66,34.547 -15.66,55.618 0,21.281 5.22,39.921 15.66,55.929 10.43,16.012 24.61,28.422 42.55,37.231 17.93,8.82 38.04,13.222 60.33,13.222 21.68,0 41.39,-4.402 59.12,-13.222 5.31,-2.641 10.19,-5.707 14.86,-8.989 1.41,10.969 4.34,21 9,29.961 6.68,12.868 16.21,22.899 28.57,30.098 12.36,7.191 27.05,10.789 44.07,10.789 l -3.65,-46.808 c -18.23,0 -32.22,-3.899 -41.94,-11.7 z M 1532.45,110.871 c 0,-15.8007 8.51,-29.1796 25.53,-40.121 17.02,-10.9414 41.94,-16.4219 74.77,-16.4219 24.31,0 45.64,3.5 63.98,10.4922 18.34,6.9883 32.62,16.1094 42.86,27.3594 10.23,11.2423 15.34,23.3513 15.34,36.3203 0,9.121 -3.34,16.969 -10.02,23.551 -6.69,6.59 -16.92,9.879 -30.7,9.879 h -113.07 c 0,0 -6.29,0 0,0 -21.88,0 -38.8,-4.559 -50.76,-13.68 -11.95,-9.109 -17.93,-21.578 -17.93,-37.379 z m 160.78,298.02 c -12.36,13.269 -29.68,19.898 -51.97,19.898 -22.09,0 -39.46,-6.629 -52.13,-19.898 -12.66,-13.282 -18.99,-30.551 -18.99,-51.832 0,-20.668 6.33,-37.887 18.99,-51.668 12.67,-13.782 30.04,-20.672 52.13,-20.672 22.29,0 39.61,6.89 51.97,20.672 12.37,13.781 18.55,31 18.55,51.668 0,21.281 -6.18,38.55 -18.55,51.832 z"
         transform="translate(0,-2.5000001e-5)"
         id="path4_mittig" />
    </clipPath>
    <linearGradient
       x1="0"
       y1="0"
       x2="1"
       y2="0"
       gradientUnits="userSpaceOnUse"
       gradientTransform="matrix(570.116,570.116,570.116,-570.116,874.898,943.771)"
       spreadMethod="pad"
       id="linearGradient8_mittig">
      <stop
         style="stop-opacity:1;stop-color:#2e9b84"
         offset="0"
         id="stop5_mittig" />
      <stop
         style="stop-opacity:1;stop-color:#2e9b84"
         offset="0.00045455"
         id="stop6_mittig" />
      <stop
         style="stop-opacity:1;stop-color:#63c54d"
         offset="0.458682"
         id="stop7_mittig" />
      <stop
         style="stop-opacity:1;stop-color:#91d233"
         offset="1"
         id="stop8_mittig" />
    </linearGradient>
    <clipPath
       clipPathUnits="userSpaceOnUse"
       id="clipPath8_mittig">
      <path
         d="m 1199.53,1238.75 -128.77,-128.76 h 370.07 v 128.69 h -239.9 c -0.48,0 -0.94,0.02 -1.4,0.07 z m -15.14,19.91 v 248.47 c 0,1.05 0.13,2.07 0.38,3.05 h -129.45 c 0.25,-0.98 0.38,-2 0.38,-3.05 v -377.16 z m -135.78,-173.45 h 392.22 v -7.23 c 0,-74.48 -60.59,-135.078 -135.07,-135.078 h -294.92 c -49.945,0 -81.84,0.328 -101.418,5.746 l 136.798,136.792 c 0.77,-0.15 1.57,-0.23 2.39,-0.23 z m -17.68,19.98 -143.059,-143.053 c -11.555,16.523 -12.105,50.943 -12.105,115.843 v 297.13 c 0,74.48 60.593,135.07 135.074,135.07 h 20.47 c -0.25,-0.98 -0.38,-2 -0.38,-3.05 V 1105.2 Z m 413.22,408.48 v 1.08 h -1.21 c 0.39,-0.36 0.82,-0.7 1.21,-1.08 z m -219.93,-250.22 h 216.61 v 117.07 c 0.01,44.53 0.01,75.44 -4.44,95.09 z m 199.87,234.9 c -15.7,11.85 -51.25,11.83 -112.92,11.83 h -102.38 c 0.24,-0.98 0.38,-2 0.38,-3.05 v -223.7 z"
         transform="translate(0,-2.5000001e-5)"
         id="path8_mittig" />
    </clipPath>
    <linearGradient
       x1="0"
       y1="0"
       x2="1"
       y2="0"
       gradientUnits="userSpaceOnUse"
       gradientTransform="matrix(912.825,912.825,912.825,-912.825,719.965,775.936)"
       spreadMethod="pad"
       id="linearGradient12_mittig">
      <stop
         style="stop-opacity:1;stop-color:#2e9b84"
         offset="0"
         id="stop9_mittig" />
      <stop
         style="stop-opacity:1;stop-color:#2e9b84"
         offset="0.00045455"
         id="stop10_mittig" />
      <stop
         style="stop-opacity:1;stop-color:#63c54d"
         offset="0.458682"
         id="stop11_mittig" />
      <stop
         style="stop-opacity:1;stop-color:#91d233"
         offset="1"
         id="stop12_mittig" />
    </linearGradient>
    <clipPath
       clipPathUnits="userSpaceOnUse"
       id="clipPath12_mittig">
      <path
         d="m 1618.35,1615.14 c 16.12,16.11 16.36,42.09 0.54,57.91 v 0 c -15.81,15.81 -41.79,15.58 -57.91,-0.54 -5.19,-5.19 -8.82,-11.54 -10.73,-18.42 h -315.08 c -4.88,17.24 -20.48,29.9 -38.96,29.9 -18.47,0 -34.07,-12.66 -38.95,-29.9 H 763.781 c -8.363,0 -15.14,-6.79 -15.14,-15.14 V 870.711 c -18.852,-5.602 -32.68,-23.391 -32.68,-44.449 0,-25.543 20.316,-46.321 45.293,-46.321 14.832,0 27.98,7.364 36.25,18.664 h 791.466 c 8.37,0 15.15,6.782 15.15,15.141 v 390.634 c 18.85,5.6 32.68,23.39 32.68,44.45 0,21.06 -13.83,38.85 -32.68,44.45 v 312.52 c 5.17,2.04 10.04,5.15 14.23,9.34 z M 1573.83,828.887 H 806.41 c -0.324,5.758 -1.637,11.246 -3.84,16.258 l 87.293,84.425 c -6.246,2.922 -11.66,6.551 -16.269,11.164 -1.289,1.286 -2.485,2.653 -3.629,4.063 l -83.102,-80.371 c -2.465,1.734 -5.16,3.125 -7.941,4.34 V 1623.8 h 381.238 c 4.91,-9.69 13.47,-17.12 23.81,-20.48 v -68.36 h 24.77 v 68.47 c 10.21,3.4 18.67,10.77 23.53,20.37 h 319.63 l -109.93,-108.18 c 0.76,-0.67 1.55,-1.31 2.27,-2.03 5.17,-5.18 9.07,-11.3 12.04,-18.64 l 114.19,112.37 c 1.1,-0.57 2.23,-1.02 3.36,-1.48 v -314.37 c -12.66,-5.5 -22.3,-16.77 -25.96,-30.53 l -82.26,0.58 v -24.78 l 82.39,-0.58 c 3.77,-13.51 13.34,-24.54 25.83,-29.98 z"
         transform="translate(0,-2.5000001e-5)"
         id="path12_mittig" />
    </clipPath>
  </defs>
  <g
     id="g1_mittig">
    <path
       id="path1_mittig"
       d="m 19.7188,165.578 v 381.75 H 251.93 V 506.602 H 67.1328 V 379.559 H 239.164 V 338.828 H 67.1328 v -173.25 z m 238.2892,0 h 49.847 l 33.438,97.871 h 151.969 l 32.218,-97.871 h 49.848 l -128.265,381.75 h -57.75 z m 95.437,134.953 63.832,189.047 63.828,-189.047 z M 652.836,165.578 v 381.75 H 700.25 V 165.578 Z M 989.34,324.191 1098.42,165.578 h -61.4 L 938.352,321.809 H 870.457 V 165.578 h -47.414 v 381.75 h 133.129 c 43.562,0 76.538,-10.379 98.928,-31.148 22.39,-20.77 33.59,-48.071 33.59,-81.91 0,-33.442 -11.2,-60.54 -33.59,-81.309 -16.29,-15.109 -38.26,-24.652 -65.76,-28.77 z m 29.29,162.047 c -14.28,13.582 -35.107,20.371 -62.458,20.371 H 870.457 V 355.238 h 82.066 c 28.571,0 50.307,7.043 65.197,21.121 14.89,14.09 22.34,32.371 22.34,54.871 0,23.098 -7.14,41.43 -21.43,55.008 z m 398.02,-320.66 v 187.231 c 0,26.14 -4.87,47.363 -14.59,63.671 -9.73,16.321 -23.2,28.219 -40.43,35.719 -17.22,7.5 -36.98,11.242 -59.27,11.242 -23.3,0 -44.02,-2.882 -62.15,-8.66 -18.14,-5.769 -32.37,-15.09 -42.71,-27.961 -10.33,-12.871 -15.5,-29.84 -15.5,-50.91 h 52.89 c 0,11.949 2.99,21.731 8.96,29.328 5.98,7.602 14.09,13.223 24.32,16.871 10.23,3.653 21.63,5.469 34.19,5.469 22.29,0 39.01,-5.726 50.15,-17.168 11.15,-11.449 16.72,-30.25 16.72,-56.39 v -38.758 c -13.25,4.566 -26.75,8.359 -40.58,11.109 -15.29,3.039 -30.54,4.551 -45.74,4.551 -21.28,0 -40.42,-2.883 -57.45,-8.66 -17.02,-5.774 -30.44,-14.844 -40.27,-27.203 -9.83,-12.36 -14.74,-28.368 -14.74,-48.02 0,-15 3.85,-29.277 11.55,-42.859 7.7,-13.578 19.35,-24.621 34.96,-33.129 15.6,-8.512 35.35,-12.77 59.26,-12.77 21.69,0 40.33,5.071 55.93,15.199 15.6,10.129 27.61,23.508 36.02,40.122 0.8,1.589 1.38,3.25 2.1,4.859 l 5.04,-52.883 z m -47.42,120.102 v -17.981 c 0,-11.14 -3.7,-22.289 -11.09,-33.429 -7.4,-11.141 -17.43,-20.411 -30.09,-27.809 -12.67,-7.402 -26.9,-11.09 -42.71,-11.09 -22.49,0 -38.85,5.059 -49.09,15.188 -10.23,10.132 -15.34,22.293 -15.34,36.48 0,19.25 6.68,32.871 20.06,40.883 13.37,8 29.78,11.996 49.23,11.996 12.77,0 26.8,-1.418 42.1,-4.246 13.57,-2.524 25.83,-5.883 36.93,-9.992 z m 659.56,123.66 c -5.67,1.828 -11.85,3.398 -18.54,4.711 -6.69,1.32 -12.66,1.98 -17.93,1.98 -17.23,0 -31.11,-4.91 -41.64,-14.742 -10.54,-9.828 -18.19,-23.66 -22.95,-41.488 -4.76,-17.832 -7.14,-38.801 -7.14,-62.922 V 165.578 h -47.42 v 291.184 h 47.42 v -56.051 c 6.81,18.508 15.85,32.828 27.2,42.828 13.68,12.051 30.34,18.082 50,18.082 6.48,0 12.41,-0.461 17.78,-1.371 5.37,-0.91 10.79,-2.281 16.26,-4.102 z m 169.3,-251.059 c -26.14,0 -49.39,5.778 -69.76,17.328 -20.36,11.551 -36.42,28.672 -48.17,51.371 -11.76,22.692 -17.63,50.649 -17.63,83.879 0,33.442 5.87,61.45 17.63,84.039 11.75,22.602 27.81,39.672 48.17,51.223 20.37,11.551 43.62,17.32 69.76,17.32 25.94,0 49.09,-5.769 69.45,-17.32 20.36,-11.551 36.37,-28.621 48.02,-51.223 11.65,-22.589 17.48,-50.597 17.48,-84.039 0,-33.23 -5.83,-61.187 -17.48,-83.879 -11.65,-22.699 -27.66,-39.82 -48.02,-51.371 -20.36,-11.55 -43.51,-17.328 -69.45,-17.328 z m -1.22,41.34 c 18.85,0 34.85,4.508 48.02,13.527 13.18,9.012 23.15,21.832 29.94,38.454 6.79,16.609 10.19,36.367 10.19,59.257 0,34.653 -7.2,61.961 -21.58,81.922 -14.39,19.957 -35.77,29.938 -64.14,29.938 -19.04,0 -35.1,-4.508 -48.17,-13.528 -13.07,-9.019 -23,-21.882 -29.79,-38.601 -6.79,-16.719 -10.18,-36.629 -10.18,-59.731 0,-34.238 7.24,-61.339 21.73,-81.3 14.49,-19.957 35.81,-29.938 63.98,-29.938 z M 1751.29,453.57 c -9.01,-7.23 -13.65,-18.308 -14.32,-32.91 1.99,-2.5 4.02,-4.961 5.81,-7.672 10.54,-16.008 15.8,-34.648 15.8,-55.929 0,-21.071 -5.26,-39.61 -15.8,-55.618 -10.54,-16.011 -24.67,-28.472 -42.4,-37.382 -17.73,-8.918 -37.44,-13.379 -59.12,-13.379 -22.29,0 -42.4,4.461 -60.33,13.379 -0.56,0.269 -1.04,0.632 -1.6,0.921 -3.3,-0.679 -6.62,-1.73 -9.95,-3.199 -6.18,-2.742 -11.35,-6.793 -15.5,-12.16 -4.16,-5.371 -6.23,-12.109 -6.23,-20.211 0,-9.32 3.85,-17.121 11.55,-23.41 7.7,-6.281 21.68,-9.422 41.94,-9.422 h 113.07 c 27.35,0 48.88,-5.769 64.59,-17.316 15.7,-11.551 23.55,-27.66 23.55,-48.332 0,-19.051 -6.79,-37.3402 -20.36,-54.8597 -13.58,-17.5312 -33.03,-31.9219 -58.36,-43.1601 -25.33,-11.25 -55.62,-16.8711 -90.88,-16.8711 -29.79,0 -55.62,4.1992 -77.51,12.6093 -21.88,8.4102 -38.85,19.6602 -50.91,33.7422 -12.05,14.0782 -18.08,29.6289 -18.08,46.6604 0,22.488 8.26,39.66 24.77,51.508 9.02,6.48 19.54,11.121 31.43,14.062 0.16,-0.082 0.33,-0.152 0.49,-0.23 l -0.11,0.3 c -0.12,-0.031 -0.26,-0.043 -0.38,-0.07 -10.51,5.41 -18.98,11.981 -25.2,19.828 -7.7,9.731 -11.55,20.371 -11.55,31.922 0,12.149 3.44,22.488 10.34,31 6.89,8.508 15.85,15 26.89,19.449 4.24,1.711 8.65,2.989 13.14,4.051 -6.75,6.051 -12.68,12.879 -17.69,20.57 -10.44,16.008 -15.66,34.547 -15.66,55.618 0,21.281 5.22,39.921 15.66,55.929 10.43,16.012 24.61,28.422 42.55,37.231 17.93,8.82 38.04,13.222 60.33,13.222 21.68,0 41.39,-4.402 59.12,-13.222 5.31,-2.641 10.19,-5.707 14.86,-8.989 1.41,10.969 4.34,21 9,29.961 6.68,12.868 16.21,22.899 28.57,30.098 12.36,7.191 27.05,10.789 44.07,10.789 l -3.65,-46.808 c -18.23,0 -32.22,-3.899 -41.94,-11.7 z M 1532.45,110.871 c 0,-15.8007 8.51,-29.1796 25.53,-40.121 17.02,-10.9414 41.94,-16.4219 74.77,-16.4219 24.31,0 45.64,3.5 63.98,10.4922 18.34,6.9883 32.62,16.1094 42.86,27.3594 10.23,11.2423 15.34,23.3513 15.34,36.3203 0,9.121 -3.34,16.969 -10.02,23.551 -6.69,6.59 -16.92,9.879 -30.7,9.879 h -113.07 c 0,0 -6.29,0 0,0 -21.88,0 -38.8,-4.559 -50.76,-13.68 -11.95,-9.109 -17.93,-21.578 -17.93,-37.379 z m 160.78,298.02 c -12.36,13.269 -29.68,19.898 -51.97,19.898 -22.09,0 -39.46,-6.629 -52.13,-19.898 -12.66,-13.282 -18.99,-30.551 -18.99,-51.832 0,-20.668 6.33,-37.887 18.99,-51.668 12.67,-13.782 30.04,-20.672 52.13,-20.672 22.29,0 39.61,6.89 51.97,20.672 12.37,13.781 18.55,31 18.55,51.668 0,21.281 -6.18,38.55 -18.55,51.832"
       style="fill:url(#linearGradient4_mittig);fill-opacity:1;fill-rule:nonzero;stroke:none"
       transform="matrix(0.13333333,0,0,-0.13333333,0,226.77333)"
       clip-path="url(#clipPath4_mittig)" />
    <path
       id="path5_mittig"
       d="m 1199.53,1238.75 -128.77,-128.76 h 370.07 v 128.69 h -239.9 c -0.48,0 -0.94,0.02 -1.4,0.07 z m -15.14,19.91 v 248.47 c 0,1.05 0.13,2.07 0.38,3.05 h -129.45 c 0.25,-0.98 0.38,-2 0.38,-3.05 v -377.16 z m -135.78,-173.45 h 392.22 v -7.23 c 0,-74.48 -60.59,-135.078 -135.07,-135.078 h -294.92 c -49.945,0 -81.84,0.328 -101.418,5.746 l 136.798,136.792 c 0.77,-0.15 1.57,-0.23 2.39,-0.23 z m -17.68,19.98 -143.059,-143.053 c -11.555,16.523 -12.105,50.943 -12.105,115.843 v 297.13 c 0,74.48 60.593,135.07 135.074,135.07 h 20.47 c -0.25,-0.98 -0.38,-2 -0.38,-3.05 V 1105.2 Z m 413.22,408.48 v 1.08 h -1.21 c 0.39,-0.36 0.82,-0.7 1.21,-1.08 z m -219.93,-250.22 h 216.61 v 117.07 c 0.01,44.53 0.01,75.44 -4.44,95.09 z m 199.87,234.9 c -15.7,11.85 -51.25,11.83 -112.92,11.83 h -102.38 c 0.24,-0.98 0.38,-2 0.38,-3.05 v -223.7 l 214.92,214.92"
       style="fill:url(#linearGradient8_mittig);fill-opacity:1;fill-rule:nonzero;stroke:none"
       transform="matrix(0.13333333,0,0,-0.13333333,0,226.77333)"
       clip-path="url(#clipPath8_mittig)" />
    <path
       id="path9_mittig"
       d="m 1618.35,1615.14 c 16.12,16.11 16.36,42.09 0.54,57.91 v 0 c -15.81,15.81 -41.79,15.58 -57.91,-0.54 -5.19,-5.19 -8.82,-11.54 -10.73,-18.42 h -315.08 c -4.88,17.24 -20.48,29.9 -38.96,29.9 -18.47,0 -34.07,-12.66 -38.95,-29.9 H 763.781 c -8.363,0 -15.14,-6.79 -15.14,-15.14 V 870.711 c -18.852,-5.602 -32.68,-23.391 -32.68,-44.449 0,-25.543 20.316,-46.321 45.293,-46.321 14.832,0 27.98,7.364 36.25,18.664 h 791.466 c 8.37,0 15.15,6.782 15.15,15.141 v 390.634 c 18.85,5.6 32.68,23.39 32.68,44.45 0,21.06 -13.83,38.85 -32.68,44.45 v 312.52 c 5.17,2.04 10.04,5.15 14.23,9.34 z M 1573.83,828.887 H 806.41 c -0.324,5.758 -1.637,11.246 -3.84,16.258 l 87.293,84.425 c -6.246,2.922 -11.66,6.551 -16.269,11.164 -1.289,1.286 -2.485,2.653 -3.629,4.063 l -83.102,-80.371 c -2.465,1.734 -5.16,3.125 -7.941,4.34 V 1623.8 h 381.238 c 4.91,-9.69 13.47,-17.12 23.81,-20.48 v -68.36 h 24.77 v 68.47 c 10.21,3.4 18.67,10.77 23.53,20.37 h 319.63 l -109.93,-108.18 c 0.76,-0.67 1.55,-1.31 2.27,-2.03 5.17,-5.18 9.07,-11.3 12.04,-18.64 l 114.19,112.37 c 1.1,-0.57 2.23,-1.02 3.36,-1.48 v -314.37 c -12.66,-5.5 -22.3,-16.77 -25.96,-30.53 l -82.26,0.58 v -24.78 l 82.39,-0.58 c 3.77,-13.51 13.34,-24.54 25.83,-29.98 V 828.887"
       style="fill:url(#linearGradient12_mittig);fill-opacity:1;fill-rule:nonzero;stroke:none"
       transform="matrix(0.13333333,0,0,-0.13333333,0,226.77333)"
       clip-path="url(#clipPath12_mittig)" />
  </g>
</svg>
